# ProBuilder 4.2.3
# https://unity3d.com/unity/features/worldbuilding/probuilder
# 2020-05-05 PM 12:04:04

mtllib ./CarrotBulletModel_LOD.mtl
o CarrotBulletModel_LOD

g Cone (1)
v 0.1495539 -0.1288934 -0.08406448
v -0.149554 -0.1288934 -0.08406448
v 0.0005266517 -0.0001631379 0.2178892
v -2.384186E-07 0.1295452 -0.08406448
v 0.04109907 -0.0002026558 -0.1094394
v -0.03680289 -0.0002017021 -0.1077929
v 0.06949711 -0.01692104 -0.2117634
v 0.07070136 0.01646328 -0.2159376
v -0.06676173 0.01650906 -0.2109041
v -0.06432962 -0.01687717 -0.2116289
v 0.0003384352 -0.0002002716 -0.1676078

vt 0.3513418 0.26056
vt 0.2013418 0.26056
vt 0.2388418 0.4240187
vt 0.3138418 0.4240187
vt 0.3508958 0.1490462
vt 0.05178791 0.1490462
vt 0.1602427 0.2802048
vt 0.2381447 0.2799072
vt 0.1318034 0.08744809
vt 0.2516375 0.360938
vt 0.2338873 0.2236337
vt 0.1995659 0.3722604
vt 0.2358589 0.2402205
vt 0.1579396 0.2402195
vt 0.1570518 0.3636366
vt 0.2841653 0.09345339
vt 0.1758307 0.2279934
vt 0.8033772 0.5268526
vt 0.9095688 0.5101342
vt 0.913913 0.5435185
vt 0.7685329 0.6171856
vt 0.6611651 0.6339445
vt 0.6611177 0.600462
vt 0.7073115 0.6116233
vt 0.7040014 0.645126
vt 0.7893521 0.6284033
vt 0.7661073 0.6053812
vt 0.8459575 0.6221189
vt 0.8443305 0.5886759
vt 0.8050646 0.2124331
vt 0.7329534 0.1638083
vt 0.7648153 0.2709565
vt 0.84217 0.2712036
vt 0.8050287 0.2113887
vt 0.764268 0.2695571
vt 0.8415666 0.2725525
vt 0.8739879 0.1688338
vt 0.8049989 0.2123852
vt 0.6872281 0.360424
vt 0.6206224 0.3161338
vt 0.6506821 0.4206046
vt 0.7582661 0.3160746
vt 0.6872976 0.3605233
vt 0.7275015 0.4190779
vt 0.6872692 0.3594341
vt 0.6501279 0.4192491
vt 0.7280298 0.4176025

vn 0 -0.9198918 0.3921724
vn 0.846424 0.4898116 0.2089283
vn -0.845899 0.4895066 0.2117503
vn 0 -0.1813251 -0.9834232
vn -0.01033089 -0.1957346 -0.9804376
vn -0.02066178 -0.2101442 -0.977452
vn 0.5653691 0.3271697 -0.7571775
vn -0.02076183 0.185555 -0.9824145
vn -0.5039579 0.2916314 -0.8130053
vn 0.963524 -0.001294697 0.2676189
vn -0.9607503 -0.07578181 0.2668632
vn -0.5505823 -0.08398698 -0.8305451
vn 0.5514579 0.0582382 -0.8321674
vn -0.1568933 0.9814727 0.1099808
vn 1.291698E-05 1 3.193626E-05
vn 0.1740076 0.9787962 0.1080712
vn 0.1772867 -0.9779858 0.1100605
vn -0.1636884 -0.9798259 0.114662
vn -1.291698E-05 -1 -3.193626E-05

usemtl BulletMat
f 3/3/1 2/2/1 1/1/1
f 4/1/2 3/3/2 1/2/2
f 2/1/3 3/4/3 4/2/3
f 5/11/7 4/10/7 1/9/7
f 4/12/8 5/14/8 6/13/8
f 2/16/9 4/15/9 6/17/9
f 7/19/10 8/20/10 5/18/10
f 9/22/11 10/23/11 6/21/11
f 8/25/12 7/24/12 11/26/12
f 9/28/13 11/27/13 10/29/13
f 8/31/14 11/30/14 5/32/14
f 5/35/15 11/34/15 6/33/15
f 11/38/16 9/37/16 6/36/16
f 6/41/17 10/40/17 11/39/17
f 5/44/18 11/43/18 7/42/18
f 5/47/19 6/46/19 11/45/19
f 5/7/6 1/6/5 2/5/4
f 2/5/4 6/8/5 5/7/6

